<?xml version="1.0" encoding="UTF-8"?>
<svg version="1.1" xmlns="http://www.w3.org/2000/svg" width="497" height="459">
<path d="M0 0 C164.01 0 328.02 0 497 0 C497 151.47 497 302.94 497 459 C332.99 459 168.98 459 0 459 C0 307.53 0 156.06 0 0 Z " fill="#FCFCFC" transform="translate(0,0)"/>
<path d="M0 0 C164.01 0 328.02 0 497 0 C497 151.47 497 302.94 497 459 C332.99 459 168.98 459 0 459 C0 307.53 0 156.06 0 0 Z M186.6328125 51.48828125 C182.57645732 53.1762484 178.73308308 53.95187034 174.4375 54.75 C165.70987554 56.50706436 158.78088783 59.74674568 151 64 C149.515 64.495 149.515 64.495 148 65 C148 65.66 148 66.32 148 67 C147.33613281 67.17015625 146.67226562 67.3403125 145.98828125 67.515625 C140.7078519 68.96485232 137.17152448 70.36328635 133 74 C131.63633669 74.75015425 130.25966244 75.47685314 128.875 76.1875 C122.97538875 79.38149483 118.10404655 83.6866218 113 88 C111.14660031 89.48012758 109.29244028 90.95930359 107.4375 92.4375 C101.96114079 96.91959226 96.65580837 101.65743465 92 107 C92 107.66 92 108.32 92 109 C91.01 109.33 90.02 109.66 89 110 C80.22820371 119.22976155 72.34963397 130.47771145 67 142 C66.4225 142.94875 65.845 143.8975 65.25 144.875 C63.83099329 146.87641384 63.83099329 146.87641384 64 149 C63.34 149 62.68 149 62 149 C58.91136542 154.73777965 56.41934717 160.29934957 54.67578125 166.58203125 C54.04515989 168.83841636 53.32769187 171.03626309 52.5625 173.25 C49.25229449 183.18061652 46.63837167 192.80175993 45.4921875 203.234375 C45.11296059 206.13576181 44.60125379 208.8364325 43.9609375 211.6796875 C42.74998007 217.58799689 42.6987342 223.36116201 42.75 229.375 C42.75531738 230.50462158 42.76063477 231.63424316 42.76611328 232.7980957 C42.90556185 245.31934156 43.32738729 257.96348097 47 270 C47.36701758 271.42383309 47.72592275 272.84977374 48.078125 274.27734375 C50.72223182 284.84811639 53.99099404 294.86794942 58 305 C58.51730744 306.39911867 59.03291597 307.7988666 59.546875 309.19921875 C66.86881443 328.77087157 82.84758497 350.85268544 99 364 C99.66 364.99 100.32 365.98 101 367 C101.99 367 102.98 367 104 367 C104.23460937 367.56976563 104.46921875 368.13953125 104.7109375 368.7265625 C106.30269586 371.53384542 108.20656474 373.24108654 110.625 375.375 C111.44226563 376.10460937 112.25953125 376.83421875 113.1015625 377.5859375 C119.54830393 382.95532591 126.3289151 387.61604859 133.4375 392.0625 C134.23220703 392.56587891 135.02691406 393.06925781 135.84570312 393.58789062 C146.42873055 400.24426182 157.03310192 406.27696504 169 410 C172 411 175 412 178 413 C178 413.66 178 414.32 178 415 C179.19496094 415.25394531 180.38992187 415.50789063 181.62109375 415.76953125 C183.22661918 416.11692564 184.83208475 416.46459677 186.4375 416.8125 C187.22060547 416.97814453 188.00371094 417.14378906 188.81054688 417.31445312 C192.74966317 418.17360195 196.51049443 419.14510432 200.296875 420.53515625 C205.99917728 422.50536 211.83829014 423.00830737 217.8125 423.625 C220.02757967 423.86502016 222.24243524 424.10711999 224.45703125 424.3515625 C225.42616455 424.45291504 226.39529785 424.55426758 227.39379883 424.65869141 C230 425 230 425 231.953125 425.5300293 C237.18761414 426.73188898 242.83533348 426.19533394 248.1875 426.1875 C248.87518463 426.18722809 249.56286926 426.18695618 250.27139282 426.18667603 C259.76734188 426.16946599 269.21498646 425.9110897 278.6875 425.1875 C279.65776123 425.11748779 280.62802246 425.04747559 281.62768555 424.9753418 C288.62739346 424.36785655 295.23327796 422.86691213 302 421 C302 420.34 302 419.68 302 419 C303.03125 418.9175 304.0625 418.835 305.125 418.75 C314.00461984 417.63019004 322.75405919 414.84553123 330.82421875 411.015625 C334.80396545 409.15793354 338.91291454 407.60411705 343 406 C343 405.34 343 404.68 343 404 C343.680625 403.9175 344.36125 403.835 345.0625 403.75 C351.62283197 402.07502162 357.01432034 397.65906875 362.45703125 393.7890625 C364.79687744 392.14290343 367.16701503 390.56354516 369.5625 389 C374.1969934 385.92137224 378.89393993 382.76631515 383 379 C383 378.34 383 377.68 383 377 C383.99 376.67 384.98 376.34 386 376 C386 375.34 386 374.68 386 374 C386.680625 373.835 387.36125 373.67 388.0625 373.5 C391.7504492 371.6167919 393.6932388 369.1594386 396.3125 366.00390625 C398 364 398 364 400.5 361.625 C403.49228805 358.48309755 405.84388338 355.08692153 408.28515625 351.5078125 C409.79319375 349.30243648 411.35064552 347.14877179 412.9375 345 C415.18884294 342.3320846 415.18884294 342.3320846 415 340 C415.66 340 416.32 340 417 340 C418.77635263 336.81554649 420.54506345 333.62690946 422.3125 330.4375 C423.06176758 329.09461914 423.06176758 329.09461914 423.82617188 327.72460938 C426.4982814 322.89357692 428.94550797 318.12414484 431 313 C431.48339844 311.80503906 431.96679688 310.61007812 432.46484375 309.37890625 C436.1018896 300.05189882 438.73496514 290.74066562 441 281 C441.53898939 278.93679873 442.08044102 276.87423823 442.625 274.8125 C443.09517637 272.87783986 443.55385324 270.94034243 444 269 C444.20753906 268.10410156 444.41507812 267.20820313 444.62890625 266.28515625 C452.05465327 227.59857212 441.7753922 185.3773381 423 151.5 C420.55434885 147.04941149 418.23647223 142.55896263 416 138 C415.34 138 414.68 138 414 138 C413.7525 137.29875 413.505 136.5975 413.25 135.875 C410.70945343 129.99472897 410.70945343 129.99472897 406 126 C405.58234375 125.28714844 405.1646875 124.57429688 404.734375 123.83984375 C402.60080258 120.34635917 400.04087645 117.53989649 397.25 114.5625 C396.71431396 113.98628906 396.17862793 113.41007812 395.62670898 112.81640625 C391.95734027 108.91128822 388.15399631 105.39101739 384 102 C382.33333333 100.33333333 380.66666667 98.66666667 379 97 C372.47103828 90.70888752 365.76353458 85.66274879 358 81 C355.85053562 79.61944971 353.70385852 78.23471933 351.55859375 76.84765625 C350.00286968 75.84074268 350.00286968 75.84074268 348 76 C348 75.34 348 74.68 348 74 C347.24976563 73.63648437 346.49953125 73.27296875 345.7265625 72.8984375 C340.64160442 70.40078807 335.70625534 67.8764829 330.9375 64.8125 C325.20371537 61.27759394 318.78432349 59 312 59 C312 58.34 312 57.68 312 57 C308.12315913 55.80712589 305.08378077 55 301 55 C301 54.34 301 53.68 301 53 C299.82630859 52.69255859 299.82630859 52.69255859 298.62890625 52.37890625 C297.61699219 52.10949219 296.60507812 51.84007812 295.5625 51.5625 C294.04849609 51.16224609 294.04849609 51.16224609 292.50390625 50.75390625 C290 50 290 50 289 49 C287.47737192 48.78519868 285.94632144 48.62929968 284.4140625 48.5 C283.48335937 48.4175 282.55265625 48.335 281.59375 48.25 C280.6140625 48.1675 279.634375 48.085 278.625 48 C276.7002386 47.83662503 274.77574184 47.6700932 272.8515625 47.5 C271.99385254 47.4278125 271.13614258 47.355625 270.25244141 47.28125 C268 47 268 47 265 46 C256.57026942 44.76374343 248.02359182 44.81375638 239.52270508 44.81469727 C237.33329512 44.81252067 235.14439893 44.7943213 232.95507812 44.77539062 C217.85955471 44.71509627 200.58408601 45.3218831 186.6328125 51.48828125 Z " fill="#FDFDFD" transform="translate(0,0)"/>
<path d="M0 0 C2.25307977 0.00535231 4.50595953 0.00003012 6.7590332 -0.00634766 C17.52368922 -0.01197631 27.85798506 0.59587299 38.43286133 2.66552734 C41.61018499 3.17647534 44.73624004 3.38484776 47.94848633 3.56787109 C53.50574992 3.93173954 58.17221781 5.07878363 63.32348633 7.13037109 C64.31348633 7.46037109 65.30348633 7.79037109 66.32348633 8.13037109 C66.32348633 8.79037109 66.32348633 9.45037109 66.32348633 10.13037109 C67.58161133 10.27474609 68.83973633 10.41912109 70.13598633 10.56787109 C72.75015755 10.86785796 74.79788525 11.28850407 77.32348633 12.13037109 C77.32348633 12.79037109 77.32348633 13.45037109 77.32348633 14.13037109 C77.97833008 14.20513672 78.63317383 14.27990234 79.30786133 14.35693359 C89.64546498 15.84624937 97.96707237 20.46929126 106.63208008 26.09521484 C108.76457138 27.40031922 110.96254742 28.31879834 113.32348633 29.13037109 C113.32348633 29.79037109 113.32348633 30.45037109 113.32348633 31.13037109 C114.18586914 31.37658203 115.04825195 31.62279297 115.93676758 31.87646484 C119.59944008 33.23254082 122.3211831 34.94614012 125.51098633 37.19287109 C126.06979492 37.58627686 126.62860352 37.97968262 127.2043457 38.38500977 C132.79363469 42.37046399 138.06437861 46.72249715 143.32348633 51.13037109 C144.56098633 52.09523438 144.56098633 52.09523438 145.82348633 53.07958984 C148.50903114 55.28257583 150.89612 57.64672888 153.32348633 60.13037109 C154.20907227 61.00435547 155.0946582 61.87833984 156.00708008 62.77880859 C169.7377418 76.3731375 169.7377418 76.3731375 171.32348633 81.13037109 C172.10723633 81.91412109 172.89098633 82.69787109 173.69848633 83.50537109 C176.14024189 85.94712666 177.75435106 88.07468663 179.32348633 91.13037109 C179.32348633 91.79037109 179.32348633 92.45037109 179.32348633 93.13037109 C179.98348633 93.13037109 180.64348633 93.13037109 181.32348633 93.13037109 C182.12786133 94.77005859 182.12786133 94.77005859 182.94848633 96.44287109 C184.59349982 99.74444203 186.33776476 102.97246357 188.13598633 106.19287109 C209.47542755 145.33305222 218.94800647 192.58066983 206.32348633 236.13037109 C205.73538617 238.60841132 205.1522908 241.08764318 204.57348633 243.56787109 C202.52309976 252.03581795 199.58729106 260.0622458 196.32348633 268.13037109 C195.88520508 269.22349609 195.44692383 270.31662109 194.99536133 271.44287109 C192.88352325 276.32559468 190.22537003 280.92702728 187.63598633 285.56787109 C187.12487305 286.49019531 186.61375977 287.41251953 186.0871582 288.36279297 C184.83557301 290.62032514 183.58095684 292.87611351 182.32348633 295.13037109 C181.66348633 295.13037109 181.00348633 295.13037109 180.32348633 295.13037109 C180.06954102 295.84580078 179.8155957 296.56123047 179.55395508 297.29833984 C176.33053296 304.71732725 170.51195163 311.17864629 165.11645508 317.14208984 C163.80117886 318.60064234 162.51619112 320.08665864 161.24926758 321.58740234 C160.55188477 322.40595703 159.85450195 323.22451172 159.13598633 324.06787109 C158.50305664 324.81939453 157.87012695 325.57091797 157.21801758 326.34521484 C155.16099536 328.28348114 153.99096672 328.49634471 151.32348633 329.13037109 C150.99348633 330.12037109 150.66348633 331.11037109 150.32348633 332.13037109 C149.66348633 332.13037109 149.00348633 332.13037109 148.32348633 332.13037109 C148.12625977 332.69111328 147.9290332 333.25185547 147.72583008 333.82958984 C145.75764706 337.05872578 142.9501376 338.84594031 139.88598633 340.94287109 C138.9502478 341.59763428 138.9502478 341.59763428 137.99560547 342.265625 C133.32879942 345.50697505 128.56985486 348.5894548 123.72583008 351.56005859 C121.22430197 353.14033732 121.22430197 353.14033732 118.67895508 355.24755859 C115.32024701 357.93229705 112.62742249 359.13037109 108.32348633 359.13037109 C107.99348633 360.12037109 107.66348633 361.11037109 107.32348633 362.13037109 C105.57348633 362.93896484 105.57348633 362.93896484 103.32348633 363.56787109 C100.1754363 364.51720493 97.27901591 365.56801393 94.32348633 367.00537109 C89.86007539 369.04714418 85.26784364 370.47863919 80.57348633 371.88037109 C79.47327148 372.21464111 79.47327148 372.21464111 78.35083008 372.55566406 C74.5758857 373.65381402 71.29902704 374.41210233 67.32348633 374.13037109 C67.32348633 374.79037109 67.32348633 375.45037109 67.32348633 376.13037109 C59.5521432 378.27445425 52.05036888 379.73891282 44.01098633 380.31787109 C42.96064209 380.39682617 41.91029785 380.47578125 40.828125 380.55712891 C31.9340497 381.1549412 23.04672189 381.34313301 14.13598633 381.38037109 C12.241427 381.3942688 12.241427 381.3942688 10.30859375 381.40844727 C1.81490695 381.37998429 -6.29837953 380.46650749 -14.67651367 379.13037109 C-16.08406093 378.95545029 -17.49275496 378.78911617 -18.90307617 378.63818359 C-25.83765059 377.85704762 -31.98769056 376.53838444 -38.53588867 374.14990234 C-44.44569631 372.23142001 -50.56936187 371.23166076 -56.67651367 370.13037109 C-56.67651367 369.47037109 -56.67651367 368.81037109 -56.67651367 368.13037109 C-57.91401367 367.71787109 -59.15151367 367.30537109 -60.42651367 366.88037109 C-61.24635742 366.60451172 -62.06620117 366.32865234 -62.91088867 366.04443359 C-64.81107502 365.4164059 -66.71784286 364.80805492 -68.62963867 364.21630859 C-69.63510742 363.89919922 -70.64057617 363.58208984 -71.67651367 363.25537109 C-72.60463867 362.96919922 -73.53276367 362.68302734 -74.48901367 362.38818359 C-82.55837251 359.20395131 -89.88667261 354.24482736 -97.23901367 349.69287109 C-98.13297852 349.14566406 -99.02694336 348.59845703 -99.94799805 348.03466797 C-107.53201987 343.34666618 -114.52749871 338.14820703 -121.42651367 332.50537109 C-122.32885742 331.77060547 -123.23120117 331.03583984 -124.16088867 330.27880859 C-126.46153729 328.31396893 -128.64863552 326.37619877 -130.67651367 324.13037109 C-130.67651367 323.47037109 -130.67651367 322.81037109 -130.67651367 322.13037109 C-131.23338867 322.08912109 -131.79026367 322.04787109 -132.36401367 322.00537109 C-135.24085595 320.91683618 -136.42526984 319.17045532 -138.2734375 316.78515625 C-139.70904578 315.09200279 -141.19568185 313.83597491 -142.93823242 312.46630859 C-147.096483 308.9580734 -150.07725047 304.88475851 -153.17651367 300.44287109 C-154.02451538 299.24803101 -154.02451538 299.24803101 -154.88964844 298.02905273 C-158.4729234 292.94772037 -161.93295415 287.8042856 -165.18823242 282.50537109 C-166.6817643 280.12199214 -168.29319832 277.85689699 -169.92651367 275.56787109 C-172.5150163 271.7262045 -173.79261828 268.06417358 -174.96557617 263.60693359 C-175.87994651 260.42170945 -177.19638546 257.51764141 -178.61401367 254.52880859 C-181.43192662 248.16778452 -183.45040318 241.72891667 -185.17651367 235.00537109 C-185.39082031 234.17569824 -185.60512695 233.34602539 -185.82592773 232.49121094 C-188.74125122 221.08715141 -191.3099387 209.94577306 -191.67651367 198.13037109 C-191.7090625 197.23833984 -191.74161133 196.34630859 -191.77514648 195.42724609 C-192.57068642 170.61282874 -190.67269388 141.48688876 -178.67651367 119.13037109 C-178.36713867 118.20224609 -178.05776367 117.27412109 -177.73901367 116.31787109 C-176.33976241 112.12011729 -174.51680249 108.15041949 -172.67651367 104.13037109 C-172.01651367 104.13037109 -171.35651367 104.13037109 -170.67651367 104.13037109 C-170.27432617 102.80005859 -170.27432617 102.80005859 -169.86401367 101.44287109 C-168.74372373 98.31785179 -167.40111274 95.94902574 -165.67651367 93.13037109 C-165.20213867 92.25380859 -164.72776367 91.37724609 -164.23901367 90.47412109 C-160.24954698 83.21329172 -155.57453669 77.12671955 -150.12963867 70.94287109 C-147.71881544 68.26876329 -147.71881544 68.26876329 -145.97338867 65.75537109 C-145.54541992 65.21912109 -145.11745117 64.68287109 -144.67651367 64.13037109 C-144.01651367 64.13037109 -143.35651367 64.13037109 -142.67651367 64.13037109 C-142.43288086 63.56189453 -142.18924805 62.99341797 -141.93823242 62.40771484 C-138.10218182 55.48382165 -131.06448298 50.55281138 -124.67651367 46.13037109 C-123.93401367 45.36724609 -123.19151367 44.60412109 -122.42651367 43.81787109 C-114.57497561 36.14477708 -98.35798992 22.13037109 -86.67651367 22.13037109 C-86.67651367 21.47037109 -86.67651367 20.81037109 -86.67651367 20.13037109 C-86.15444336 19.89962891 -85.63237305 19.66888672 -85.09448242 19.43115234 C-83.99040039 18.94195312 -83.99040039 18.94195312 -82.86401367 18.44287109 C-82.0312793 18.07806641 -81.19854492 17.71326172 -80.34057617 17.33740234 C-78.62929213 16.56205518 -76.93410052 15.74955399 -75.26245117 14.89208984 C-68.64137356 11.58155104 -62.08799761 9.90237322 -54.87011719 8.47412109 C-54.12689209 8.32587891 -53.38366699 8.17763672 -52.61791992 8.02490234 C-51.95477783 7.89962158 -51.29163574 7.77434082 -50.60839844 7.64526367 C-48.61897264 7.18543979 -48.61897264 7.18543979 -46.70605469 6.13916016 C-44.54098821 5.06300778 -42.629324 4.56884255 -40.26245117 4.09521484 C-38.99594727 3.84094727 -38.99594727 3.84094727 -37.70385742 3.58154297 C-36.82858398 3.41203125 -35.95331055 3.24251953 -35.05151367 3.06787109 C-34.19944336 2.89449219 -33.34737305 2.72111328 -32.46948242 2.54248047 C-21.62972069 0.40240648 -11.021656 -0.03111096 0 0 Z M-81.67651367 36.13037109 C-82.87276367 36.56349609 -84.06901367 36.99662109 -85.30151367 37.44287109 C-94.25002034 40.70157583 -104.17951429 44.83585576 -110.07495117 52.44287109 C-112.85836206 55.37563574 -116.28647463 57.42500272 -119.66479492 59.61474609 C-120.32866211 60.11490234 -120.9925293 60.61505859 -121.67651367 61.13037109 C-121.67651367 61.79037109 -121.67651367 62.45037109 -121.67651367 63.13037109 C-122.54276367 63.47068359 -122.54276367 63.47068359 -123.42651367 63.81787109 C-126.8114224 65.79240118 -128.9824192 68.54386944 -130.55151367 72.13037109 C-131.67651367 74.13037109 -131.67651367 74.13037109 -134.48901367 76.31787109 C-139.86171739 80.57126154 -142.44951343 86.53720783 -143.67651367 93.13037109 C-135.39494376 93.28161346 -127.23990136 92.81601476 -118.98901367 92.13037109 C-117.79856445 92.03498047 -116.60811523 91.93958984 -115.3815918 91.84130859 C-112.47956134 91.60821378 -109.57791351 91.37116711 -106.67651367 91.13037109 C-104.79447471 96.58664344 -103.13431624 102.02520715 -101.73901367 107.63037109 C-100.4544357 112.64975213 -98.8491558 117.24185483 -96.61010742 121.91162109 C-95.11777833 125.45824421 -94.33279034 129.14382064 -93.46557617 132.88427734 C-92.61483723 136.38409943 -91.59221748 139.80757178 -90.55151367 143.25537109 C-88.91078255 148.89147038 -87.94654335 154.270727 -87.67651367 160.13037109 C-88.33651367 160.13037109 -88.99651367 160.13037109 -89.67651367 160.13037109 C-89.90338867 160.68724609 -90.13026367 161.24412109 -90.36401367 161.81787109 C-91.67651367 164.13037109 -91.67651367 164.13037109 -93.86401367 166.23193359 C-97.41478235 169.71326845 -100.15124065 173.75258021 -102.98901367 177.81787109 C-103.53879883 178.589375 -104.08858398 179.36087891 -104.6550293 180.15576172 C-107.58316432 183.81521085 -107.58316432 183.81521085 -108.67651367 188.13037109 C-109.33651367 188.13037109 -109.99651367 188.13037109 -110.67651367 188.13037109 C-112.28796205 190.14234456 -112.28796205 190.14234456 -113.92651367 192.69287109 C-115.14394997 194.5274024 -116.3983943 196.33758915 -117.67651367 198.13037109 C-118.27029312 199.01523193 -118.27029312 199.01523193 -118.87606812 199.91796875 C-122.46940948 204.7601291 -122.46940948 204.7601291 -125.67993164 205.74485779 C-128.00842858 205.93856566 -130.24084351 205.91934498 -132.57495117 205.81396484 C-133.40991119 205.80406021 -134.24487122 205.79415558 -135.10513306 205.78395081 C-137.75576132 205.74495683 -140.40215124 205.65717815 -143.05151367 205.56787109 C-144.854839 205.53273717 -146.65822967 205.5008018 -148.46166992 205.47216797 C-152.86823536 205.39524583 -157.27165765 205.27457958 -161.67651367 205.13037109 C-161.69343207 208.18508201 -161.7058095 211.23969838 -161.71557617 214.29443359 C-161.72081299 215.15560791 -161.7260498 216.01678223 -161.73144531 216.90405273 C-161.74661777 223.23096783 -161.29438301 228.9931015 -159.67651367 235.13037109 C-159.46687988 235.92830078 -159.25724609 236.72623047 -159.04125977 237.54833984 C-158.29048518 240.37217878 -157.51954785 243.18961673 -156.73901367 246.00537109 C-156.48619629 246.92237793 -156.23337891 247.83938477 -155.97290039 248.78417969 C-154.11808973 255.31797436 -154.11808973 255.31797436 -150.67651367 261.13037109 C-150.01651367 261.13037109 -149.35651367 261.13037109 -148.67651367 261.13037109 C-148.55276367 262.03787109 -148.42901367 262.94537109 -148.30151367 263.88037109 C-147.7554169 266.72007432 -147.10387565 268.65627701 -145.67651367 271.13037109 C-145.01651367 271.13037109 -144.35651367 271.13037109 -143.67651367 271.13037109 C-143.5862793 271.85740234 -143.49604492 272.58443359 -143.40307617 273.33349609 C-142.54579301 276.63357537 -141.24639874 278.28718642 -139.05151367 280.88037109 C-136.26432582 284.21602167 -133.57970625 287.5775534 -130.98901367 291.06787109 C-128.47969035 294.32259431 -126.29104254 296.1328683 -122.67651367 298.13037109 C-120.9891909 300.11297535 -119.3228531 302.1136053 -117.67651367 304.13037109 C-114.60270194 307.17303613 -114.60270194 307.17303613 -110.67651367 308.13037109 C-108.31241313 303.65546649 -106.32689117 299.29277565 -104.67651367 294.50537109 C-103.16542129 290.21410482 -101.32395281 286.85333238 -98.67651367 283.13037109 C-96.72495708 279.54447205 -94.96845616 276.00619857 -93.67651367 272.13037109 C-84.99171653 266.52727616 -68.50197871 272.95068402 -58.93432617 274.88818359 C-49.72596394 276.706883 -40.52511503 277.9663463 -31.18823242 278.95263672 C-25.01822004 279.65228666 -19.47378865 280.8908237 -13.67651367 283.13037109 C-13.67651367 283.79037109 -13.67651367 284.45037109 -13.67651367 285.13037109 C-12.89276367 285.58412109 -12.10901367 286.03787109 -11.30151367 286.50537109 C-8.55291877 288.20688222 -7.79730335 289.17556194 -6.67651367 292.13037109 C-6.01651367 292.13037109 -5.35651367 292.13037109 -4.67651367 292.13037109 C-4.59401367 292.66662109 -4.51151367 293.20287109 -4.42651367 293.75537109 C-2.50077522 299.85354286 2.52153089 305.17205867 6.24926758 310.27099609 C8.13614767 312.87211894 9.98809278 315.49278037 11.82348633 318.13037109 C12.38680664 318.93474609 12.95012695 319.73912109 13.53051758 320.56787109 C14.82515053 322.41815261 16.11342848 324.2728863 17.39770508 326.13037109 C18.4437793 327.61537109 18.4437793 327.61537109 19.51098633 329.13037109 C20.14391602 330.03787109 20.7768457 330.94537109 21.42895508 331.88037109 C23.43295728 334.26038195 24.43400974 335.08443191 27.32348633 336.13037109 C30.36719181 336.10439757 30.36719181 336.10439757 33.71411133 335.59130859 C34.97328369 335.42501953 36.23245605 335.25873047 37.52978516 335.08740234 C38.87783587 334.89443918 40.22573414 334.70040841 41.57348633 334.50537109 C42.25365814 334.41078613 42.93382996 334.31620117 43.63461304 334.21875 C52.46212839 332.99024749 61.11052544 331.53090937 69.71020508 329.13427734 C72.42040932 328.38128006 75.10104783 327.70819357 77.84301758 327.09521484 C78.610896 326.923125 79.37877441 326.75103516 80.16992188 326.57373047 C81.63513454 326.24844164 83.10137844 325.92774549 84.56884766 325.61279297 C89.93762331 324.39874495 94.80630557 323.15327878 98.19848633 318.63037109 C99.52866867 316.13132101 99.52866867 316.13132101 99.32348633 313.13037109 C99.98348633 313.13037109 100.64348633 313.13037109 101.32348633 313.13037109 C102.78411483 310.48298193 103.32348633 309.23588775 103.32348633 306.13037109 C103.98348633 306.13037109 104.64348633 306.13037109 105.32348633 306.13037109 C105.76047852 305.00501953 105.76047852 305.00501953 106.20629883 303.85693359 C109.02077408 296.82959601 112.32544546 290.53992868 116.32348633 284.13037109 C118.91869884 279.70500872 121.27541606 275.32665514 123.19848633 270.56787109 C126.50430452 262.96448926 132.49970987 257.73231393 138.81958008 252.57568359 C139.56401367 251.86025391 139.56401367 251.86025391 140.32348633 251.13037109 C140.32348633 250.47037109 140.32348633 249.81037109 140.32348633 249.13037109 C142.99015299 247.79703776 145.65681966 246.46370443 148.32348633 245.13037109 C148.32348633 244.47037109 148.32348633 243.81037109 148.32348633 243.13037109 C149.04020508 243.02208984 149.75692383 242.91380859 150.49536133 242.80224609 C153.57403861 242.07084762 155.82529509 240.93928659 158.57348633 239.38037109 C159.52739258 238.84412109 160.48129883 238.30787109 161.46411133 237.75537109 C162.40770508 237.21912109 163.35129883 236.68287109 164.32348633 236.13037109 C165.98952071 235.21255575 167.65612987 234.29578248 169.32348633 233.38037109 C171.7490067 232.04276795 174.01227098 230.67118133 176.32348633 229.13037109 C176.32348633 228.47037109 176.32348633 227.81037109 176.32348633 227.13037109 C177.49911133 226.91380859 177.49911133 226.91380859 178.69848633 226.69287109 C181.28769651 226.25238185 181.28769651 226.25238185 183.32348633 225.13037109 C183.32348633 221.17037109 183.32348633 217.21037109 183.32348633 213.13037109 C183.98348633 213.13037109 184.64348633 213.13037109 185.32348633 213.13037109 C186.21776441 204.35898519 186.4481828 195.69313273 186.38598633 186.88037109 C186.37921875 185.02992188 186.37921875 185.02992188 186.37231445 183.14208984 C186.3606712 180.1381304 186.34432009 177.13427843 186.32348633 174.13037109 C185.66348633 174.13037109 185.00348633 174.13037109 184.32348633 174.13037109 C184.34088867 173.22158203 184.34088867 173.22158203 184.35864258 172.29443359 C185.03061064 161.22057202 185.03061064 161.22057202 181.19848633 151.38037109 C180.24973633 150.63787109 179.30098633 149.89537109 178.32348633 149.13037109 C177.13169603 148.11454983 175.94437153 147.0934716 174.76098633 146.06787109 C174.20282227 145.60251953 173.6446582 145.13716797 173.06958008 144.65771484 C171.32348633 143.13037109 171.32348633 143.13037109 169.55395508 141.27490234 C166.64910013 138.48196825 163.48040772 136.20816688 160.19848633 133.88037109 C159.2490918 133.19201172 159.2490918 133.19201172 158.28051758 132.48974609 C155.11588898 129.97954222 155.11588898 129.97954222 151.32348633 129.13037109 C151.32348633 128.47037109 151.32348633 127.81037109 151.32348633 127.13037109 C150.66348633 127.13037109 150.00348633 127.13037109 149.32348633 127.13037109 C149.32348633 126.47037109 149.32348633 125.81037109 149.32348633 125.13037109 C148.72020508 124.82744141 148.11692383 124.52451172 147.49536133 124.21240234 C146.69614258 123.79345703 145.89692383 123.37451172 145.07348633 122.94287109 C144.28458008 122.53681641 143.49567383 122.13076172 142.68286133 121.71240234 C135.42093209 116.84306238 133.27377806 108.23086781 131.32348633 100.13037109 C130.591132 95.96854607 130.16261398 91.79856785 129.78051758 87.59130859 C129.48226013 84.22611678 129.48226013 84.22611678 128.31958008 81.63818359 C127.0010161 78.31850487 126.87186065 75.18244634 126.57348633 71.63037109 C126.04802044 65.63815038 126.04802044 65.63815038 122.63598633 60.94287109 C120.99629883 60.04568359 120.99629883 60.04568359 119.32348633 59.13037109 C115.75708905 57.10410678 112.20270777 55.06159498 108.66723633 52.98193359 C99.78932802 47.80918728 90.96592464 43.68683096 81.32348633 40.13037109 C79.7534082 39.5096875 79.7534082 39.5096875 78.15161133 38.87646484 C73.41150073 37.0380706 69.50181548 35.57055173 64.32348633 36.13037109 C64.32348633 35.47037109 64.32348633 34.81037109 64.32348633 34.13037109 C58.28796007 32.82224733 58.28796007 32.82224733 52.69848633 34.88037109 C52.1905957 35.22583984 51.68270508 35.57130859 51.15942383 35.92724609 C49.32348633 37.13037109 49.32348633 37.13037109 46.49926758 38.50927734 C43.15895793 40.21435545 40.20474422 42.16402238 37.13598633 44.31787109 C36.29777344 44.9039917 36.29777344 44.9039917 35.44262695 45.50195312 C30.83395447 48.73663577 26.28518081 52.05204256 21.76098633 55.40380859 C18.09972461 57.99720231 14.78437379 60.30428082 10.32348633 61.13037109 C10.32348633 61.79037109 10.32348633 62.45037109 10.32348633 63.13037109 C0.61858024 65.12112106 -8.99572172 63.81343762 -18.73901367 62.75537109 C-20.6779248 62.55065186 -20.6779248 62.55065186 -22.65600586 62.34179688 C-29.25747643 61.63716417 -35.84512926 60.87672791 -42.42651367 60.00537109 C-50.487866 58.94929874 -58.56039719 58.51206964 -66.67651367 58.13037109 C-68.91342669 49.85379292 -70.51214057 41.62344547 -71.67651367 33.13037109 C-76.14921594 33.13037109 -77.76724967 34.10056094 -81.67651367 36.13037109 Z " fill="#060606" transform="translate(234.676513671875,44.86962890625)"/>
<path d="M0 0 C1.04929687 0.51820313 2.09859375 1.03640625 3.1796875 1.5703125 C9.02404041 4.34254832 14.7582081 6.25683825 21.0546875 7.6953125 C21.0546875 8.3553125 21.0546875 9.0153125 21.0546875 9.6953125 C21.8590625 9.7778125 22.6634375 9.8603125 23.4921875 9.9453125 C28.01402955 10.89727925 31.90171451 12.71111429 36.0546875 14.6953125 C36.0546875 15.3553125 36.0546875 16.0153125 36.0546875 16.6953125 C37.0034375 16.8396875 37.9521875 16.9840625 38.9296875 17.1328125 C42.0546875 17.6953125 42.0546875 17.6953125 44.0546875 18.6953125 C44.0546875 19.3553125 44.0546875 20.0153125 44.0546875 20.6953125 C45.0240625 20.7778125 45.9934375 20.8603125 46.9921875 20.9453125 C51.70567453 21.63649593 55.97675443 23.23053769 60.0546875 25.6953125 C61.9296875 28.2578125 61.9296875 28.2578125 63.0546875 30.6953125 C64.03564498 31.71399912 65.03170828 32.71883233 66.0546875 33.6953125 C67.42728314 36.44050378 67.27200663 38.73645735 67.37109375 41.80859375 C67.41347168 43.10249023 67.45584961 44.39638672 67.49951172 45.72949219 C67.539737 47.1555711 67.57893518 48.5816793 67.6171875 50.0078125 C67.63670471 50.72618286 67.65622192 51.44455322 67.67633057 52.18469238 C67.79984877 56.85829157 67.90456075 61.53213811 68.00140381 66.20635986 C68.05559712 68.73780223 68.11661065 71.26902126 68.17822266 73.80029297 C68.27759544 78.02924056 68.34677467 82.25781965 68.39572144 86.48764038 C68.41828759 88.12045241 68.44941794 89.75316948 68.48928833 91.38565063 C68.54308679 93.68200144 68.56452731 95.97654315 68.578125 98.2734375 C68.59794434 99.58731445 68.61776367 100.90119141 68.63818359 102.25488281 C67.90364628 106.5858869 66.41283905 107.96160296 63.0546875 110.6953125 C60.28378527 112.54258065 59.01078567 113.07850539 55.87890625 113.6953125 C55.0576123 113.85918457 54.23631836 114.02305664 53.39013672 114.19189453 C52.51631348 114.35802246 51.64249023 114.52415039 50.7421875 114.6953125 C49.84516113 114.87046387 48.94813477 115.04561523 48.02392578 115.22607422 C41.83267275 116.41384724 35.64611065 117.41515894 29.390625 118.203125 C26.66000996 118.60600263 24.01065928 119.11118079 21.3125 119.6796875 C16.0807275 120.74609238 10.86877516 121.34149515 5.5546875 121.8203125 C4.68199219 121.90667969 3.80929687 121.99304688 2.91015625 122.08203125 C-16.34873133 123.87952742 -16.34873133 123.87952742 -22.9453125 118.6953125 C-24.2578125 116.0078125 -24.2578125 116.0078125 -24.9453125 113.6953125 C-25.9353125 113.3653125 -26.9253125 113.0353125 -27.9453125 112.6953125 C-29.3931047 109.79972809 -29.9453125 107.95342312 -29.9453125 104.6953125 C-30.6053125 104.6953125 -31.2653125 104.6953125 -31.9453125 104.6953125 C-32.95040051 102.90649514 -33.94923986 101.11416554 -34.9453125 99.3203125 C-35.5021875 98.32257813 -36.0590625 97.32484375 -36.6328125 96.296875 C-37.9453125 93.6953125 -37.9453125 93.6953125 -37.9453125 91.6953125 C-38.6053125 91.6953125 -39.2653125 91.6953125 -39.9453125 91.6953125 C-40.95040051 89.90649514 -41.94923986 88.11416554 -42.9453125 86.3203125 C-43.5021875 85.32257813 -44.0590625 84.32484375 -44.6328125 83.296875 C-45.9453125 80.6953125 -45.9453125 80.6953125 -45.9453125 78.6953125 C-46.6053125 78.6953125 -47.2653125 78.6953125 -47.9453125 78.6953125 C-49.27864583 75.36197917 -50.61197917 72.02864583 -51.9453125 68.6953125 C-52.6053125 68.6953125 -53.2653125 68.6953125 -53.9453125 68.6953125 C-56.9453125 62.9453125 -56.9453125 62.9453125 -56.9453125 60.6953125 C-57.6053125 60.6953125 -58.2653125 60.6953125 -58.9453125 60.6953125 C-61.09559867 57.96610313 -61.92573198 55.78965502 -62.6328125 52.3828125 C-61.40056026 45.77345957 -55.89686361 42.28841544 -50.8828125 38.1953125 C-47.74771803 35.52714699 -45.24954111 32.64862602 -42.65625 29.46484375 C-40.85379817 27.60066412 -39.24189342 26.83895401 -36.9453125 25.6953125 C-35.75990326 24.01598274 -34.57807564 22.33376641 -33.4296875 20.62890625 C-31.24299446 17.78045084 -28.5940754 15.61600092 -25.85546875 13.3125 C-22.77890464 10.70780155 -20.01374855 7.80988557 -17.2265625 4.90234375 C-16.31390625 3.96455078 -16.31390625 3.96455078 -15.3828125 3.0078125 C-14.82464844 2.42644531 -14.26648438 1.84507812 -13.69140625 1.24609375 C-8.87201769 -3.03421332 -5.73639384 -2.5410551 0 0 Z " fill="#050505" transform="translate(263.9453125,157.3046875)"/>
<path d="M0 0 C2.10827055 3.16240582 2.33817465 4.50657469 2.625 8.1875 C2.69976562 9.08855469 2.77453125 9.98960938 2.8515625 10.91796875 C2.90054687 11.60503906 2.94953125 12.29210937 3 13 C3.66 13 4.32 13 5 13 C5.144375 14.134375 5.28875 15.26875 5.4375 16.4375 C5.61171478 19.80777201 5.61171478 19.80777201 7 21 C7.13216608 22.91493967 7.23064486 24.83225092 7.3125 26.75 C7.69526031 32.00369389 8.60076126 33.98271785 12 38 C12.64622497 40.78632066 13.0598302 43.54087164 13.41015625 46.37890625 C14.05888174 49.26165328 15.0804347 50.78911855 17 53 C12.36755639 51.08312678 10.61894802 48.46196624 8.68359375 43.890625 C5.88430794 35.71214734 4.23929114 28.0743925 3.45703125 19.4609375 C3.03260883 16.24693522 2.21999469 13.96559974 1 11 C0.7240522 9.07096868 0.51550097 7.1310968 0.375 5.1875 C0.30023438 4.21167969 0.22546875 3.23585938 0.1484375 2.23046875 C0.09945313 1.49441406 0.05046875 0.75835937 0 0 Z " fill="#838383" transform="translate(360,113)"/>
<path d="M0 0 C2.42376196 3.63564294 2.25759528 5.38768565 2.265625 9.71484375 C2.26753845 10.36699356 2.2694519 11.01914337 2.27142334 11.6910553 C2.27278262 13.068699 2.26910406 14.44635562 2.26074219 15.82397461 C2.25005558 17.92656437 2.26063651 20.02829644 2.2734375 22.13085938 C2.27211552 23.47135604 2.26955233 24.81185218 2.265625 26.15234375 C2.26336914 27.36913818 2.26111328 28.58593262 2.25878906 29.83959961 C1.9509862 33.5985695 0.98856173 35.68711518 -1.23828125 38.64453125 C-7.08029187 43.139382 -16.86730038 43.41957057 -24 43 C-20.72831267 41.10586523 -17.85695804 40.59030775 -14.125 40.125 C-9.0130148 39.33854074 -5.90564091 38.37785159 -2 35 C-0.50016915 32.0003383 -0.76097945 28.88053039 -0.68359375 25.5859375 C-0.66281265 24.85629791 -0.64203156 24.12665833 -0.62062073 23.37490845 C-0.55518083 21.04170237 -0.49626632 18.70838279 -0.4375 16.375 C-0.39430947 14.79425905 -0.35069501 13.21352961 -0.30664062 11.6328125 C-0.19950519 7.75532496 -0.09822218 3.87772315 0 0 Z " fill="#D2D2D2" transform="translate(332,230)"/>
<path d="M0 0 C0.53367188 0.28875 1.06734375 0.5775 1.6171875 0.875 C7.68067437 3.89625297 12.30425412 4.49982328 19 4 C20.16273438 3.92136719 21.32546875 3.84273438 22.5234375 3.76171875 C25.684901 3.53198116 28.84238974 3.27715701 32 3 C31.360625 3.309375 30.72125 3.61875 30.0625 3.9375 C28.06389179 4.8345163 28.06389179 4.8345163 27 6 C24.04088924 6.37650713 21.09254194 6.70736104 18.125 7 C16.48146139 7.16358705 14.83821425 7.33013617 13.1953125 7.5 C12.46328613 7.5721875 11.73125977 7.644375 10.97705078 7.71875 C8.79395347 7.96898008 8.79395347 7.96898008 6 9 C3.375 7.9375 3.375 7.9375 1 6 C0.1875 2.8125 0.1875 2.8125 0 0 Z " fill="#AAAAAA" transform="translate(240,275)"/>
<path d="M0 0 C4.99470675 -0.02509515 9.98937519 -0.04304276 14.98413086 -0.05493164 C16.67619467 -0.0598984 18.36825434 -0.06667408 20.06030273 -0.07543945 C50.51932395 -0.22904472 50.51932395 -0.22904472 61 4 C61 4.33 61 4.66 61 5 C58.89551062 4.85890014 56.7914123 4.71195825 54.6875 4.5625 C53.51574219 4.48128906 52.34398437 4.40007813 51.13671875 4.31640625 C48 4 48 4 45 3 C35.52904271 1.64764213 25.86108743 1.68248941 16.3125 1.4375 C14.72460067 1.39419808 13.13670992 1.35058057 11.54882812 1.30664062 C7.69930779 1.20079311 3.84969711 1.09920091 0 1 C0 0.67 0 0.34 0 0 Z " fill="#9B9B9B" transform="translate(220,44)"/>
<path d="M0 0 C2.91697011 0.14104691 5.8334802 0.28764814 8.75 0.4375 C9.9875 0.49647461 9.9875 0.49647461 11.25 0.55664062 C12.44882813 0.61948242 12.44882813 0.61948242 13.671875 0.68359375 C14.4050293 0.72025146 15.13818359 0.75690918 15.89355469 0.79467773 C18 1 18 1 19.8795166 1.5057373 C22.01559543 2.00363513 23.84537749 2.12063189 26.03417969 2.11352539 C26.81468689 2.11344986 27.59519409 2.11337433 28.39935303 2.11329651 C29.23178528 2.10813522 30.06421753 2.10297394 30.921875 2.09765625 C31.78186096 2.0962413 32.64184692 2.09482635 33.52789307 2.09336853 C36.26863109 2.08778097 39.00928676 2.07523075 41.75 2.0625 C43.6106759 2.05748339 45.47135309 2.05292077 47.33203125 2.04882812 C51.88805246 2.03781561 56.44401228 2.02055951 61 2 C58.35758703 4.64241297 56.40315657 4.25990986 52.80589294 4.30354309 C51.95084671 4.30263168 51.09580048 4.30172028 50.21484375 4.30078125 C49.32575821 4.30506638 48.43667267 4.3093515 47.52064514 4.31376648 C45.62664642 4.31952369 43.73262558 4.31999986 41.83862305 4.31567383 C39.00072795 4.31256917 36.16393356 4.33575823 33.32617188 4.36132812 C21.89647467 4.39930054 11.16834366 3.44495422 0 1 C0 0.67 0 0.34 0 0 Z " fill="#B2B2B2" transform="translate(212,423)"/>
<path d="M0 0 C2.89737461 0.32193051 4.73667089 0.81738204 7.14746094 2.48925781 C9.88617939 6.20103701 9.5021287 9.42593686 9.390625 13.921875 C9.38496521 14.78186096 9.37930542 15.64184692 9.37347412 16.52789307 C9.35111951 19.26916649 9.30092602 22.00912304 9.25 24.75 C9.22993376 26.61065818 9.21168321 28.47133689 9.1953125 30.33203125 C9.15125784 34.88852666 9.08223754 39.44404022 9 44 C8.67 44 8.34 44 8 44 C7.97494385 43.0212793 7.9498877 42.04255859 7.92407227 41.03417969 C7.82976017 37.39619296 7.72959797 33.75838657 7.62768555 30.12060547 C7.58442662 28.54740626 7.54274526 26.97416283 7.50268555 25.40087891 C7.44476338 23.13690885 7.38113286 20.87315949 7.31640625 18.609375 C7.29969376 17.90818542 7.28298126 17.20699585 7.26576233 16.48455811 C7.21765961 11.63173627 7.21765961 11.63173627 6 7 C5.01 6.67 4.02 6.34 3 6 C1.3125 2.9375 1.3125 2.9375 0 0 Z " fill="#C4C4C4" transform="translate(323,182)"/>
<path d="M0 0 C0.66 0.66 1.32 1.32 2 2 C1.625 4.125 1.625 4.125 1 6 C0.505 4.515 0.505 4.515 0 3 C-1.05574219 3.06058594 -2.11148438 3.12117187 -3.19921875 3.18359375 C-15.12963411 3.8609317 -27.06323346 4.44671792 -39 5 C-39 4.01 -39 3.02 -39 2 C-38.30519531 2.02320313 -37.61039062 2.04640625 -36.89453125 2.0703125 C-28.59293538 2.21761585 -20.50055642 1.57705314 -12.24926758 0.71142578 C-10.95025513 0.57583252 -10.95025513 0.57583252 -9.625 0.4375 C-8.46871094 0.31181641 -8.46871094 0.31181641 -7.2890625 0.18359375 C-4.82296385 -0.01419915 -2.47145067 -0.16118157 0 0 Z " fill="#5F5F5F" transform="translate(128,135)"/>
<path d="M0 0 C0.66 0.33 1.32 0.66 2 1 C0.95125002 3.62187494 0.35068687 4.79371361 -2.125 6.25 C-2.74375 6.4975 -3.3625 6.745 -4 7 C-4 7.66 -4 8.32 -4 9 C-7.46153846 12 -7.46153846 12 -10 12 C-10 12.66 -10 13.32 -10 14 C-10.99 14.495 -10.99 14.495 -12 15 C-12.6496875 16.175625 -12.6496875 16.175625 -13.3125 17.375 C-15.20600376 20.3204503 -16.92130157 21.41904675 -20 23 C-18.32598022 19.04322598 -15.86850715 16.15535787 -13 13 C-12.34 13 -11.68 13 -11 13 C-10.76539062 12.43796875 -10.53078125 11.8759375 -10.2890625 11.296875 C-8.69337 8.45364109 -6.71075457 6.51901873 -4.375 4.25 C-3.55773437 3.45078125 -2.74046875 2.6515625 -1.8984375 1.828125 C-0.95871094 0.92320313 -0.95871094 0.92320313 0 0 Z " fill="#434343" transform="translate(103,96)"/>
<path d="M0 0 C1.32 0.33 2.64 0.66 4 1 C1.17765483 4.13593908 -0.54696778 5.79038891 -4.7890625 6.40234375 C-10.83128852 6.47117924 -16.23387806 5.77419137 -22 4 C-22 3.67 -22 3.34 -22 3 C-20.91460937 3.01160156 -19.82921875 3.02320312 -18.7109375 3.03515625 C-17.26562673 3.04454138 -15.82031409 3.05364081 -14.375 3.0625 C-13.66214844 3.07087891 -12.94929687 3.07925781 -12.21484375 3.08789062 C-8.02655562 3.10710296 -4.1271538 2.8267327 0 2 C0 1.34 0 0.68 0 0 Z " fill="#C1C1C1" transform="translate(245,106)"/>
<path d="M0 0 C0.99 0.66 1.98 1.32 3 2 C0.36 1.67 -2.28 1.34 -5 1 C-5 1.66 -5 2.32 -5 3 C-8.63 3.33 -12.26 3.66 -16 4 C-15 1 -15 1 -13.0625 -0.25 C-8.64007823 -1.33304207 -4.44156947 -0.9334824 0 0 Z " fill="#242424" transform="translate(156,315)"/>
<path d="M0 0 C0.66 0.33 1.32 0.66 2 1 C1.01 1.33 0.02 1.66 -1 2 C-1.39832031 2.84304688 -1.39832031 2.84304688 -1.8046875 3.703125 C-3.55531187 7.06706986 -6.32276592 9.27285108 -9.125 11.75 C-9.68832031 12.25660156 -10.25164062 12.76320313 -10.83203125 13.28515625 C-12.21651531 14.52884532 -13.60761488 15.76516305 -15 17 C-15 14 -15 14 -14 11 C-13.34 11 -12.68 11 -12 11 C-12 10.34 -12 9.68 -12 9 C-11.01 9 -10.02 9 -9 9 C-8.67 8.01 -8.34 7.02 -8 6 C-6.15234375 4.39453125 -6.15234375 4.39453125 -3.9375 2.8125 C-3.20402344 2.28269531 -2.47054688 1.75289063 -1.71484375 1.20703125 C-1.14894531 0.80871094 -0.58304687 0.41039062 0 0 Z " fill="#BEBEBE" transform="translate(376,292)"/>
<path d="M0 0 C-0.55774272 3.23490776 -1.37211508 4.97855006 -4 7 C-4.99 7 -5.98 7 -7 7 C-7.33 8.32 -7.66 9.64 -8 11 C-8.66 11 -9.32 11 -10 11 C-10.33 11.66 -10.66 12.32 -11 13 C-12.32 12.67 -13.64 12.34 -15 12 C-14.48050781 11.55269531 -13.96101563 11.10539062 -13.42578125 10.64453125 C-8.64019924 6.49728023 -8.64019924 6.49728023 -4.125 2.0625 C-2 0 -2 0 0 0 Z " fill="#363636" transform="translate(381,291)"/>
<path d="M0 0 C0.33 0.99 0.66 1.98 1 3 C-11.25 15.25 -11.25 15.25 -16 17 C-15.1875 15.0625 -15.1875 15.0625 -14 13 C-13.01 12.67 -12.02 12.34 -11 12 C-9.78725927 10.29560763 -8.57809772 8.58823138 -7.40625 6.85546875 C-5.28566622 4.05747627 -2.77756433 2.13161913 0 0 Z " fill="#3C3C3C" transform="translate(238,171)"/>
<path d="M0 0 C0.6875 1.8125 0.6875 1.8125 1 4 C-2.47281486 8.86194081 -9.51603731 9.0709522 -15 10 C-17.73518213 10.19479042 -20.25727316 10.16133687 -23 10 C-19.72831267 8.10586523 -16.85695804 7.59030775 -13.125 7.125 C-8.0130148 6.33854074 -4.90564091 5.37785159 -1 2 C-0.67 1.34 -0.34 0.68 0 0 Z " fill="#ADADAD" transform="translate(331,263)"/>
<path d="M0 0 C2.10827055 3.16240582 2.33817465 4.50657469 2.625 8.1875 C2.69976562 9.08855469 2.77453125 9.98960938 2.8515625 10.91796875 C2.90054687 11.60503906 2.94953125 12.29210937 3 13 C3.66 13 4.32 13 5 13 C5.144375 14.134375 5.28875 15.26875 5.4375 16.4375 C5.61171478 19.80777201 5.61171478 19.80777201 7 21 C7.04080783 22.99958364 7.04254356 25.00045254 7 27 C2.47387414 18.64407534 0 9.50568926 0 0 Z " fill="#707070" transform="translate(360,113)"/>
<path d="M0 0 C0 3.10551666 -0.5393715 4.35261084 -2 7 C-2.66 7 -3.32 7 -4 7 C-4 7.66 -4 8.32 -4 9 C-6.8125 11.6875 -6.8125 11.6875 -10 14 C-10.99 13.67 -11.98 13.34 -13 13 C-10.10569432 9.30172052 -8.21929354 7.04159365 -4 5 C-1.77183014 2.46557594 -1.77183014 2.46557594 0 0 Z " fill="#C4C4C4" transform="translate(394,367)"/>
<path d="M0 0 C1.33470263 2.66940525 0.57333449 4.13332753 0 7 C0.33 7.66 0.66 8.32 1 9 C-0.28965176 10.37562854 -1.62689293 11.70766393 -3 13 C-3.66 13 -4.32 13 -5 13 C-5.33 13.66 -5.66 14.32 -6 15 C-5.48640535 9.8640535 -3.7815677 3.7815677 0 0 Z " fill="#4D4D4D" transform="translate(134,330)"/>
<path d="M0 0 C1.57365681 3.93414201 0.51804935 7.23406988 -1 11 C-2.56156619 14.06457365 -4.243469 17.0433963 -6 20 C-7 18 -7 18 -5.8203125 14.375 C-5.26298335 12.91367764 -4.69750804 11.45544267 -4.125 10 C-3.84269531 9.26265625 -3.56039063 8.5253125 -3.26953125 7.765625 C-1.21552579 2.43105159 -1.21552579 2.43105159 0 0 Z " fill="#A9A9A9" transform="translate(437,295)"/>
<path d="M0 0 C-3 2 -3 2 -6.25 2.4375 C-10.04673381 2.84519004 -10.04673381 2.84519004 -13.5 4.5 C-17.07036449 6.03015621 -20.15327039 6.60747657 -24 7 C-22.58480285 4.9656541 -21.45017877 4.09589607 -19.01953125 3.578125 C-17.01823046 3.33726048 -15.0090056 3.16467259 -13 3 C-13 2.34 -13 1.68 -13 1 C-8.62426048 0.40667939 -4.42471556 -0.13827236 0 0 Z " fill="#8A8A8A" transform="translate(200,48)"/>
<path d="M0 0 C0.66 0.33 1.32 0.66 2 1 C-2.84710557 5.0035833 -6.80660737 7.70970987 -13 9 C-13 8.34 -13 7.68 -13 7 C-10.91796875 5.52734375 -10.91796875 5.52734375 -8.1875 3.9375 C-7.29417969 3.41027344 -6.40085938 2.88304688 -5.48046875 2.33984375 C-3 1 -3 1 0 0 Z " fill="#AEAEAE" transform="translate(141,86)"/>
<path d="M0 0 C4.91684563 0.52306868 9.18339911 1.66487041 13.84375 3.30078125 C16.52894667 4.17152437 19.20362496 4.64149038 22 5 C22 5.33 22 5.66 22 6 C16.7489086 6.18107212 12.94421661 5.95708574 8 4 C6.54228553 3.45667006 5.08392918 2.91505975 3.625 2.375 C2.42875 1.92125 1.2325 1.4675 0 1 C0 0.67 0 0.34 0 0 Z " fill="#9F9F9F" transform="translate(189,417)"/>
<path d="M0 0 C1.32 0 2.64 0 4 0 C4 0.66 4 1.32 4 2 C4.68707031 2.03738281 5.37414062 2.07476562 6.08203125 2.11328125 C6.98308594 2.17902344 7.88414062 2.24476562 8.8125 2.3125 C10.15248047 2.39951172 10.15248047 2.39951172 11.51953125 2.48828125 C14.30604 3.06313581 15.24135754 3.8206856 17 6 C15.7315625 5.7834375 15.7315625 5.7834375 14.4375 5.5625 C8.25049103 4.44497438 8.25049103 4.44497438 2 4 C1.34 2.68 0.68 1.36 0 0 Z " fill="#CECECE" transform="translate(295,79)"/>
<path d="M0 0 C2.86544183 3.23919511 3.34536289 5.79161859 4 10 C4.66 10.33 5.32 10.66 6 11 C6.59355614 13.64860427 6.74209269 16.29197322 7 19 C3.5442857 17.27214285 3.11275429 13.37470275 1.88671875 9.87890625 C0.85953739 6.54396059 0.30825826 3.46790537 0 0 Z " fill="#B6B6B6" transform="translate(78,287)"/>
<path d="M0 0 C1 3 1 3 0.0625 5.3125 C-1.14926993 8.37756511 -1.15192141 10.73368961 -1 14 C-2.5 12.9375 -2.5 12.9375 -4 11 C-4.4375 7.5625 -4.4375 7.5625 -4 4 C-2 1.5625 -2 1.5625 0 0 Z " fill="#434343" transform="translate(206,202)"/>
<path d="M0 0 C2.14290201 3.21435301 3.48080508 6.45521186 5 10 C5.99 11.485 5.99 11.485 7 13 C5.0625 13.5625 5.0625 13.5625 3 14 C2 13 2 13 1.9375 10.4375 C1.958125 9.633125 1.97875 8.82875 2 8 C1.34 8 0.68 8 0 8 C0 5.36 0 2.72 0 0 Z " fill="#D9D9D9" transform="translate(368,153)"/>
<path d="M0 0 C7.46819926 -0.40735632 13.70648143 0.80432095 20 5 C12.96871122 4.56615452 6.670985 3.25678003 0 1 C0 0.67 0 0.34 0 0 Z " fill="#6E6E6E" transform="translate(281,49)"/>
<path d="M0 0 C1.65 0.33 3.3 0.66 5 1 C1.40803709 3.95054096 1.40803709 3.95054096 -1.0625 4.25 C-3.46424226 4.92801218 -3.46424226 4.92801218 -4.75 8.5625 C-5.1625 9.696875 -5.575 10.83125 -6 12 C-7.60031344 8.79937313 -6.03173691 6.27728194 -5 3 C-4.360625 2.87625 -3.72125 2.7525 -3.0625 2.625 C-2.0415625 2.315625 -2.0415625 2.315625 -1 2 C-0.67 1.34 -0.34 0.68 0 0 Z " fill="#AFAFAF" transform="translate(144,312)"/>
<path d="M0 0 C1.24546405 2.49092811 0.7767578 3.41080733 0 6 C-0.66 6 -1.32 6 -2 6 C-3.63676257 7.9600281 -3.63676257 7.9600281 -5 10 C-5.99 9.67 -6.98 9.34 -8 9 C-6.85459775 7.68712379 -5.70866567 6.37470979 -4.5625 5.0625 C-3.92441406 4.33160156 -3.28632813 3.60070312 -2.62890625 2.84765625 C-1.77458541 1.87860647 -0.91348825 0.91348825 0 0 Z " fill="#363636" transform="translate(251,158)"/>
<path d="M0 0 C0.66 0 1.32 0 2 0 C2.12375 0.969375 2.2475 1.93875 2.375 2.9375 C2.684375 4.4534375 2.684375 4.4534375 3 6 C3.66 6.33 4.32 6.66 5 7 C4.01 8.485 4.01 8.485 3 10 C2.34 10 1.68 10 1 10 C0.67 10.66 0.34 11.32 0 12 C0 8.04 0 4.08 0 0 Z " fill="#2D2D2D" transform="translate(418,258)"/>
<path d="M0 0 C0.66 0.33 1.32 0.66 2 1 C1.38125 1.0825 0.7625 1.165 0.125 1.25 C-2.16352629 1.79948083 -2.16352629 1.79948083 -3.125 3.9375 C-3.558125 4.9584375 -3.558125 4.9584375 -4 6 C-6 8 -6 8 -9.125 8.125 C-10.548125 8.063125 -10.548125 8.063125 -12 8 C-10.38277261 4.76554522 -7.0795022 3.6545571 -4 2 C-2.8553125 1.3503125 -2.8553125 1.3503125 -1.6875 0.6875 C-1.130625 0.460625 -0.57375 0.23375 0 0 Z " fill="#555555" transform="translate(141,69)"/>
<path d="M0 0 C0.33 0.66 0.66 1.32 1 2 C0.328125 3.83984375 0.328125 3.83984375 -0.75 5.9375 C-1.26820313 6.97197266 -1.26820313 6.97197266 -1.796875 8.02734375 C-3.00394966 10.00647591 -4.29707383 11.43898435 -6 13 C-6.20086443 9.28400809 -6.1519437 8.22791555 -4 5 C-3.34 5 -2.68 5 -2 5 C-1.34 3.35 -0.68 1.7 0 0 Z " fill="#9D9D9D" transform="translate(358,312)"/>
<path d="M0 0 C0.33 0.66 0.66 1.32 1 2 C-0.73397418 5.65047197 -2.19333016 7.55609075 -6 9 C-6.33 8.01 -6.66 7.02 -7 6 C-4.69 4.02 -2.38 2.04 0 0 Z " fill="#2C2C2C" transform="translate(220,189)"/>
<path d="M0 0 C0.33 0.66 0.66 1.32 1 2 C-0.65 4.31 -2.3 6.62 -4 9 C-5.32 8.67 -6.64 8.34 -8 8 C-7.04578192 6.85073734 -6.08647955 5.70569459 -5.125 4.5625 C-4.59132813 3.92441406 -4.05765625 3.28632813 -3.5078125 2.62890625 C-2 1 -2 1 0 0 Z " fill="#C6C6C6" transform="translate(403,358)"/>
<path d="M0 0 C0.99 0.33 1.98 0.66 3 1 C1.1875 3.5 1.1875 3.5 -1 6 C-1.99 6 -2.98 6 -4 6 C-4 6.66 -4 7.32 -4 8 C-4.66 7.67 -5.32 7.34 -6 7 C-5.67 6.01 -5.34 5.02 -5 4 C-4.34 4 -3.68 4 -3 4 C-3 3.34 -3 2.68 -3 2 C-2.01 1.34 -1.02 0.68 0 0 Z " fill="#E6E6E6" transform="translate(368,295)"/>
<path d="M0 0 C2.62187494 1.04874998 3.79371361 1.64931313 5.25 4.125 C5.4975 4.74375 5.745 5.3625 6 6 C6.66 6 7.32 6 8 6 C8 7.65 8 9.3 8 11 C7.731875 10.360625 7.46375 9.72125 7.1875 9.0625 C6.11332248 6.66868314 6.11332248 6.66868314 3 6 C1.3125 2.9375 1.3125 2.9375 0 0 Z " fill="#979797" transform="translate(323,182)"/>
<path d="M0 0 C8.19256018 0.35010941 8.19256018 0.35010941 11.5625 3.0625 C12.036875 3.701875 12.51125 4.34125 13 5 C11.02 5 9.04 5 7 5 C6.67 4.34 6.34 3.68 6 3 C4.02111039 2.27306096 2.02045442 1.60183749 0 1 C0 0.67 0 0.34 0 0 Z " fill="#878787" transform="translate(165,409)"/>
<path d="M0 0 C0 3.86695678 -1.41909971 6.5088452 -3 10 C-3.66 10 -4.32 10 -5 10 C-5.33 10.66 -5.66 11.32 -6 12 C-6.66 11.67 -7.32 11.34 -8 11 C-5.36 7.37 -2.72 3.74 0 0 Z " fill="#AAAAAA" transform="translate(412,345)"/>
<path d="M0 0 C1.08557659 3.24215827 0.94015194 5.02321809 -0.3125 8.1875 C-0.57675781 8.88230469 -0.84101562 9.57710937 -1.11328125 10.29296875 C-2 12 -2 12 -4 13 C-3.71682074 11.39431334 -3.42312209 9.79047953 -3.125 8.1875 C-2.96257813 7.29417969 -2.80015625 6.40085938 -2.6328125 5.48046875 C-2 3 -2 3 0 0 Z " fill="#4C4C4C" transform="translate(59,156)"/>
<path d="M0 0 C0 0.66 0 1.32 0 2 C-0.66 2 -1.32 2 -2 2 C-2.33 2.99 -2.66 3.98 -3 5 C-6.5625 6.1875 -6.5625 6.1875 -10 7 C-3.18421053 0 -3.18421053 0 0 0 Z " fill="#AFAFAF" transform="translate(277,87)"/>
<path d="M0 0 C0.33 1.65 0.66 3.3 1 5 C-1.97 4.01 -4.94 3.02 -8 2 C-8 1.67 -8 1.34 -8 1 C-2.25 0 -2.25 0 0 0 Z " fill="#C0C0C0" transform="translate(220,323)"/>
<path d="M0 0 C4.29 0.33 8.58 0.66 13 1 C13 1.33 13 1.66 13 2 C8.59085217 3.10228696 4.51617599 3.07654536 0 3 C0 2.01 0 1.02 0 0 Z " fill="#838383" transform="translate(89,137)"/>
<path d="M0 0 C2.64 0.33 5.28 0.66 8 1 C7.67 1.66 7.34 2.32 7 3 C5.00371336 3.3548954 3.00309329 3.68578929 1 4 C-1.28480253 4.97348627 -1.28480253 4.97348627 -3 6 C-2.67 4.68 -2.34 3.36 -2 2 C-1.34 2 -0.68 2 0 2 C0 1.34 0 0.68 0 0 Z " fill="#CBCBCB" transform="translate(253,153)"/>
<path d="M0 0 C3 2 3 2 5 5 C1.0507432 4.44894091 -2.34920174 3.61064629 -6 2 C-3.50907189 0.75453595 -2.58919267 1.2232422 0 2 C0 1.34 0 0.68 0 0 Z " fill="#414141" transform="translate(317,82)"/>
<path d="M0 0 C0 0.33 0 0.66 0 1 C-0.928125 1.28875 -1.85625 1.5775 -2.8125 1.875 C-6.09791667 2.8875 -6.09791667 2.8875 -9 5 C-9.99 5 -10.98 5 -12 5 C-11 2 -11 2 -8.8125 0.8125 C-5.74609689 -0.07334979 -3.17561845 -0.14770318 0 0 Z " fill="#626262" transform="translate(152,314)"/>
<path d="M0 0 C1.5 1.375 1.5 1.375 3 3 C3 3.66 3 4.32 3 5 C3.66 5 4.32 5 5 5 C5.33 6.32 5.66 7.64 6 9 C5.34 9 4.68 9 4 9 C4 8.34 4 7.68 4 7 C3.01 7 2.02 7 1 7 C0.67 4.69 0.34 2.38 0 0 Z " fill="#414141" transform="translate(411,133)"/>
<path d="M0 0 C0 3.15081975 -0.27898465 4.41847698 -2 7 C-4.125 7.75 -4.125 7.75 -6 8 C-4.26440562 4.942048 -2.61527381 2.36620011 0 0 Z " fill="#2B2B2B" transform="translate(365,304)"/>
<path d="M0 0 C0.66 0.33 1.32 0.66 2 1 C1.01 1.33 0.02 1.66 -1 2 C-1.6837045 3.32467746 -2.34964186 4.65863633 -3 6 C-3.99 6.66 -4.98 7.32 -6 8 C-5.65120368 4.74456771 -4.97866739 3.98126893 -2.4375 1.75 C-1.633125 1.1725 -0.82875 0.595 0 0 Z " fill="#B3B3B3" transform="translate(376,292)"/>
<path d="M0 0 C1.32 0 2.64 0 4 0 C4 0.66 4 1.32 4 2 C4.94875 2.12375 5.8975 2.2475 6.875 2.375 C10 3 10 3 12 5 C8.37471432 5.20140476 6.13498292 4.85776765 3 3 C3 2.34 3 1.68 3 1 C2.01 0.67 1.02 0.34 0 0 Z " fill="#565656" transform="translate(281,165)"/>
<path d="M0 0 C1.32 0.33 2.64 0.66 4 1 C1.69 2.65 -0.62 4.3 -3 6 C-3 3 -3 3 -1.75 1.25 C-1.1725 0.8375 -0.595 0.425 0 0 Z " fill="#181818" transform="translate(268,89)"/>
<path d="M0 0 C3.465 1.485 3.465 1.485 7 3 C7 3.66 7 4.32 7 5 C5.02 5 3.04 5 1 5 C0.67 3.35 0.34 1.7 0 0 Z " fill="#B9B9B9" transform="translate(240,275)"/>
<path d="M0 0 C0 0.66 0 1.32 0 2 C-0.66 2 -1.32 2 -2 2 C-2.33 2.66 -2.66 3.32 -3 4 C-4.32 3.67 -5.64 3.34 -7 3 C-4.49955934 -0.00052879 -4.2621484 0 0 0 Z " fill="#2F2F2F" transform="translate(373,300)"/>
<path d="M0 0 C0.66 0.33 1.32 0.66 2 1 C0.25 3.0625 0.25 3.0625 -2 5 C-4.25 4.75 -4.25 4.75 -6 4 C-5.01 3.67 -4.02 3.34 -3 3 C-3 2.34 -3 1.68 -3 1 C-2.01 0.67 -1.02 0.34 0 0 Z " fill="#575757" transform="translate(414,271)"/>
<path d="M0 0 C4.42857143 5.14285714 4.42857143 5.14285714 5 9 C4.01 8.67 3.02 8.34 2 8 C2 6.68 2 5.36 2 4 C1.34 4 0.68 4 0 4 C0 2.68 0 1.36 0 0 Z " fill="#CACACA" transform="translate(226,251)"/>
<path d="M0 0 C1.98 1.65 3.96 3.3 6 5 C4.1875 5.625 4.1875 5.625 2 6 C1.01 5.34 0.02 4.68 -1 4 C-0.34 4 0.32 4 1 4 C0.67 2.68 0.34 1.36 0 0 Z " fill="#1F1F1F" transform="translate(387,105)"/>
</svg>
